<svg width="126" height="126" viewBox="0 0 126 126" fill="none" xmlns="http://www.w3.org/2000/svg">
<path d="M26.8129 30.0536L29.7134 30.8524L27.5689 31.3766C26.4777 31.5504 25.9863 32.0217 25.7872 32.6366L25.1194 38.0268L24.2979 32.624C24.1967 32.3724 24.0436 32.145 23.8487 31.9566C23.6537 31.7682 23.4212 31.6229 23.1664 31.5303L20.3944 30.8524L23.3302 30.0208C23.5724 29.921 23.7917 29.7731 23.975 29.586C24.1582 29.3988 24.3015 29.1764 24.3962 28.9322L25.127 22.8212L25.6511 28.7986C25.7355 29.0829 25.8842 29.3439 26.0856 29.5616C26.2871 29.7792 26.5359 29.9475 26.8129 30.0536Z" fill="#EBEBEB"/>
<path d="M30.9633 38.2285L32.0041 38.5158L31.2481 38.7048C30.855 38.7678 30.6811 38.9341 30.608 39.1533L30.356 41.0887L30.0612 39.1508C30.0252 39.0606 29.9704 38.9791 29.9005 38.9117C29.8305 38.8444 29.747 38.7927 29.6555 38.7602L28.6475 38.5082L29.7008 38.2109C29.7872 38.1746 29.8654 38.1214 29.9308 38.0542C29.9962 37.9871 30.0474 37.9076 30.0813 37.8203L30.3333 35.6304L30.5223 37.7724C30.5538 37.8782 30.6104 37.9749 30.6871 38.0543C30.7639 38.1337 30.8586 38.1934 30.9633 38.2285V38.2285Z" fill="#EBEBEB"/>
<path d="M11.3632 46.5867L3.14929 74.3521L37.8789 84.6262L46.0928 56.8609L11.3632 46.5867Z" fill="#FAFAFA"/>
<path d="M46.0934 56.8664C46.0934 56.8664 46.0354 56.8664 45.9246 56.821L45.4357 56.6824L43.5457 56.1356L36.4292 54.0566L11.3401 46.6805L11.4585 46.6175C9.01664 54.8831 6.21692 64.3583 3.2534 74.3829L3.18284 74.2544L37.9059 84.546L37.7976 84.604C40.2898 76.2502 42.3562 69.3252 43.8002 64.4793L45.4861 58.8597C45.6826 58.2112 45.8322 57.7164 45.9346 57.3754C46.038 57.0402 46.0959 56.8714 46.0959 56.8714C46.0959 56.8714 46.0531 57.0402 45.9598 57.3754C45.8666 57.7106 45.7078 58.207 45.534 58.8496L43.896 64.4642C42.4696 69.3278 40.4284 76.2804 37.9664 84.667L37.9412 84.7502L37.858 84.725L3.11984 74.4585L3.01904 74.4282L3.04928 74.3274C6.02036 64.3004 8.82008 54.8277 11.2746 46.5646L11.3023 46.4739L11.3905 46.5016L36.5124 53.9835L43.5961 56.1053L45.4634 56.6673L45.9372 56.816L46.0934 56.8664Z" fill="#E0E0E0"/>
<path d="M12.043 48.6894L4.86279 72.9604L37.1542 82.5133L44.3344 58.2422L12.043 48.6894Z" fill="#EBEBEB"/>
<path d="M4.86377 72.9641L20.6062 61.2134L24.7995 72.7197L31.0315 69.0758L37.1551 82.5175L4.86377 72.9641Z" fill="#E0E0E0"/>
<path d="M31.1045 62.3096C30.9559 62.8124 30.6616 63.2599 30.2587 63.5955C29.8559 63.9311 29.3626 64.1396 28.8412 64.1948C28.3198 64.25 27.7937 64.1494 27.3295 63.9056C26.8653 63.6619 26.4838 63.2859 26.2333 62.8253C25.9827 62.3648 25.8744 61.8403 25.9219 61.3181C25.9695 60.796 26.1708 60.2996 26.5004 59.8919C26.83 59.4842 27.2731 59.1833 27.7737 59.0274C28.2743 58.8715 28.8099 58.8675 29.3127 59.016C29.6467 59.1146 29.9579 59.278 30.2287 59.4969C30.4994 59.7157 30.7244 59.9858 30.8908 60.2917C31.0572 60.5975 31.1617 60.9332 31.1984 61.2794C31.235 61.6256 31.2031 61.9757 31.1045 62.3096V62.3096Z" fill="#E0E0E0"/>
<path d="M75.1549 69.3982L72.2515 99.9998L110.527 103.631L113.431 73.0298L75.1549 69.3982Z" fill="#FAFAFA"/>
<path d="M113.42 73.022H113.236L112.697 72.9767L110.628 72.7776L102.778 72.072L75.1364 69.5016L75.2448 69.4134C74.3854 78.5207 73.3976 88.961 72.3569 100.011L72.2586 99.8903L110.532 103.537L110.432 103.62C111.324 94.4093 112.064 86.7712 112.584 81.4313C112.836 78.7601 113.052 76.6659 113.193 75.2295C113.267 74.5189 113.322 73.9695 113.36 73.5941C113.398 73.2186 113.423 73.0296 113.423 73.0296C113.423 73.0296 113.423 73.211 113.382 73.5764C113.342 73.9418 113.302 74.4912 113.239 75.1968C113.108 76.6281 112.919 78.7248 112.677 81.3809C112.173 86.7384 111.472 94.3967 110.615 103.638V103.731H110.522L72.2434 100.122H72.1326V100.011C73.1859 88.9635 74.1788 78.5232 75.0457 69.4159V69.3176H75.144L102.841 71.9939L110.653 72.7625L112.712 72.9691L113.239 73.0245C113.365 73.0119 113.42 73.022 113.42 73.022Z" fill="#E0E0E0"/>
<path d="M76.2918 71.4496L73.7539 98.1978L109.34 101.574L111.878 74.8261L76.2918 71.4496Z" fill="#EBEBEB"/>
<path d="M73.7454 98.1919L87.7515 82.7443L94.4648 93.8751L100.215 88.8099L109.333 101.566L73.7454 98.1919Z" fill="#E0E0E0"/>
<path d="M98.9126 81.7463C98.8603 82.3007 98.6446 82.827 98.2931 83.2589C97.9415 83.6907 97.4697 84.0085 96.9375 84.1721C96.4053 84.3358 95.8364 84.3379 95.303 84.1782C94.7696 84.0185 94.2955 83.7042 93.9407 83.275C93.5859 82.8458 93.3664 82.3211 93.3099 81.7671C93.2535 81.2131 93.3625 80.6549 93.6234 80.1629C93.8843 79.671 94.2852 79.2674 94.7754 79.0034C95.2656 78.7393 95.8232 78.6266 96.3775 78.6795C97.1202 78.7503 97.8045 79.1131 98.2798 79.6882C98.7552 80.2632 98.9828 81.0035 98.9126 81.7463V81.7463Z" fill="#E0E0E0"/>
<path d="M38.8995 77.3337L10.411 84.2784L15.9633 107.055L44.4518 100.11L38.8995 77.3337Z" fill="#FAFAFA"/>
<path d="M38.8963 77.3388L38.7577 77.3766L38.3595 77.4774L36.8148 77.868L30.9961 79.3044L10.4354 84.3444L10.4909 84.2537C12.144 91.0325 14.0415 98.8017 16.05 107.024L15.9467 106.964L44.4302 100.044L44.3773 100.13L40.3882 83.601C39.9119 81.6127 39.5364 80.0503 39.2793 78.9819C39.1533 78.4501 39.0576 78.0419 38.9921 77.7597C38.9265 77.4774 38.8963 77.3363 38.8963 77.3363C38.8963 77.3363 38.9341 77.4724 39.0022 77.742C39.0702 78.0117 39.1735 78.4224 39.3045 78.9466C39.5565 80.01 39.9522 81.5623 40.4436 83.5431L44.5159 100.097L44.531 100.165L44.463 100.183L15.987 107.138L15.9038 107.158L15.8837 107.075C13.8828 98.8521 11.9928 91.0804 10.3397 84.2991L10.322 84.226L10.3951 84.2083L31.0238 79.2213L36.845 77.8227L38.3797 77.4573L38.7728 77.3665L38.8963 77.3388Z" fill="#E0E0E0"/>
<path d="M38.2344 79.016L11.7462 85.4731L16.5997 105.383L43.0878 98.9256L38.2344 79.016Z" fill="#EBEBEB"/>
<path d="M16.5892 105.384L22.8262 90.7554L30.4442 97.1007L33.322 92.0154L43.077 98.9302L16.5892 105.384Z" fill="#E0E0E0"/>
<path d="M30.6206 87.2501C30.7211 87.6626 30.6971 88.0956 30.5515 88.4945C30.4059 88.8933 30.1453 89.24 29.8027 89.4908C29.4601 89.7416 29.0508 89.8851 28.6266 89.9033C28.2024 89.9215 27.7823 89.8135 27.4195 89.593C27.0567 89.3725 26.7674 89.0493 26.5882 88.6644C26.409 88.2795 26.3479 87.8501 26.4127 87.4305C26.4775 87.0109 26.6653 86.6199 26.9523 86.307C27.2393 85.9941 27.6126 85.7733 28.025 85.6726C28.2991 85.6056 28.5836 85.5933 28.8624 85.6364C29.1411 85.6794 29.4087 85.777 29.6497 85.9235C29.8908 86.07 30.1006 86.2626 30.2672 86.4902C30.4338 86.7178 30.5539 86.976 30.6206 87.2501V87.2501Z" fill="#E0E0E0"/>
<path d="M109.258 22.9853L68.9532 30.3826L74.8675 62.6068L115.172 55.2096L109.258 22.9853Z" fill="#FAFAFA"/>
<path d="M109.26 22.9824L109.066 23.0227L108.501 23.1336L106.314 23.5469L98.0659 25.0917L68.9725 30.492L69.0581 30.3685C70.8221 39.9597 72.8381 50.9519 74.9852 62.5867L74.8441 62.496L115.164 55.1175L115.086 55.2334C113.322 45.5263 111.865 37.48 110.845 31.8528C110.341 29.038 109.943 26.8305 109.67 25.3159C109.537 24.5599 109.436 23.9879 109.366 23.5923C109.295 23.1966 109.267 22.9925 109.267 22.9925C109.267 22.9925 109.31 23.184 109.383 23.5671C109.456 23.9501 109.567 24.5272 109.708 25.2706C109.99 26.7826 110.401 28.9725 110.928 31.7747C111.974 37.4119 113.473 45.4734 115.28 55.2107L115.298 55.3065L115.199 55.3241L74.8919 62.7203L74.7735 62.743L74.7533 62.6245C72.6239 50.9897 70.6079 39.9949 68.8515 30.4038L68.8339 30.298L68.9372 30.2778L98.1188 24.9858L106.344 23.4915L108.514 23.1059L109.071 23.0101L109.26 22.9824Z" fill="#E0E0E0"/>
<path d="M108.191 25.2795L70.7168 32.1572L75.8864 60.324L113.36 53.4463L108.191 25.2795Z" fill="#EBEBEB"/>
<path d="M75.8873 60.3213L85.7607 40.4108L95.8785 49.8759L100.304 43.0089L113.36 53.4417L75.8873 60.3213Z" fill="#E0E0E0"/>
<path d="M96.9167 36.1445C97.0241 36.7284 96.956 37.331 96.7208 37.8762C96.4857 38.4213 96.0942 38.8845 95.5958 39.2071C95.0974 39.5297 94.5145 39.6972 93.9209 39.6885C93.3272 39.6798 92.7495 39.4952 92.2608 39.1581C91.7721 38.821 91.3944 38.3466 91.1753 37.7948C90.9563 37.2429 90.9059 36.6386 91.0304 36.0581C91.1549 35.4776 91.4488 34.947 91.8748 34.5336C92.3009 34.1202 92.84 33.8424 93.424 33.7354C93.8115 33.664 94.2093 33.6697 94.5947 33.7522C94.98 33.8347 95.3453 33.9923 95.6696 34.2161C95.994 34.4398 96.2711 34.7253 96.4851 35.0562C96.6991 35.387 96.8457 35.7569 96.9167 36.1445V36.1445Z" fill="#E0E0E0"/>
<path d="M86.5091 19.0058L90.3823 13.4845L84.0873 16.2464L84.4376 7.82458L79.5211 13.3409L75.4589 6.7561L73.4983 14.238L67.3445 13.5223L71.4269 19.9962L64.507 24.8195L73.1228 22.8312L73.4 29.6679L79.1532 25.0538L85.1936 30.1266L84.4628 23.4637L92.0606 22.8539L86.5091 19.0058Z" fill="white"/>
<path d="M86.5091 19.0058C86.5091 19.0058 86.6275 19.094 86.8644 19.2578L87.9279 20.0138L92.038 22.8916L92.0556 22.821L84.4578 23.4107H84.4049V23.4662C84.6191 25.462 84.8635 27.7124 85.1256 30.1316L85.2289 30.0761L79.1809 24.9958L79.1356 24.958L79.0902 24.9958L73.3345 29.6049L73.4605 29.6603C73.3723 27.4931 73.2791 25.1899 73.1859 22.8261V22.7354L73.0977 22.7505C70.4189 23.199 67.3647 24.2499 64.4793 24.7363L64.5372 24.8849C66.5532 23.5997 68.9371 21.6644 71.1069 20.2885L71.4597 20.0642L71.5302 20.0188L71.4849 19.9508L67.4125 13.4794L67.3344 13.6029L73.4883 14.3186H73.5588L73.5765 14.2505C74.2485 11.6785 74.9011 9.18365 75.5345 6.76613L75.3934 6.78881L79.4607 13.3711L79.5111 13.4542L79.5741 13.3811L84.4855 7.85981L84.3721 7.81445C84.2461 10.9267 84.1353 13.7415 84.0345 16.2363V16.3195L84.1126 16.2867L90.4126 13.5147L90.3672 13.4593C89.1072 15.2661 88.1496 16.6521 87.4944 17.592L86.751 18.6479C86.5872 18.8848 86.499 19.0033 86.499 19.0033C86.499 19.0033 86.5897 18.8823 86.751 18.6454L87.507 17.592L90.4025 13.5021L90.4806 13.3912L90.3546 13.4467L84.0546 16.1935L84.1277 16.2439C84.2361 13.7516 84.357 10.9367 84.4906 7.82453V7.64309L84.3721 7.77917C82.8316 9.50285 81.1911 11.3399 79.4506 13.2904H79.564L75.5244 6.71573L75.4312 6.56201L75.3858 6.73589C74.7508 9.14669 74.0956 11.6407 73.4202 14.2178L73.5059 14.1573L67.3546 13.4416L67.1832 13.4215L67.2739 13.5651C68.6095 15.6819 69.9703 17.8407 71.3563 20.0415L71.3841 19.9256L71.0313 20.1498C68.8615 21.5283 66.4953 23.4636 64.4616 24.7488L64.1189 24.9681L64.5196 24.9C67.4025 24.4137 70.4592 23.3628 73.1355 22.9118L73.0422 22.8362C73.1405 25.1999 73.2363 27.5032 73.3245 29.6704V29.8216L73.4404 29.7258L79.1885 25.1092H79.0978C81.2549 26.9135 83.2911 28.6221 85.1458 30.1769L85.2667 30.2777L85.2491 30.1215C84.9795 27.7023 84.73 25.4544 84.5082 23.4586L84.4603 23.5166L92.0556 22.8916H92.164L92.0733 22.8311L87.9631 19.9961L86.8846 19.2578L86.5091 19.0058Z" fill="#263238"/>
<path d="M80.0856 15.8003L79.8336 19.6937C79.8241 19.8476 79.7586 19.9928 79.6495 20.1018C79.5405 20.2109 79.3953 20.2763 79.2414 20.2859C79.0792 20.2959 78.9194 20.2432 78.795 20.1385C78.6707 20.0339 78.5914 19.8854 78.5736 19.7239L78.1427 15.8104C78.1364 15.7405 78.1447 15.67 78.1672 15.6035C78.1897 15.537 78.2258 15.476 78.2732 15.4243C78.3207 15.3726 78.3784 15.3313 78.4427 15.3032C78.507 15.2751 78.5765 15.2607 78.6467 15.261H79.5967C79.6647 15.2629 79.7316 15.2785 79.7934 15.3069C79.8552 15.3353 79.9106 15.3759 79.9562 15.4263C80.0019 15.4767 80.0369 15.5358 80.0592 15.6001C80.0814 15.6643 80.0904 15.7324 80.0856 15.8003V15.8003Z" fill="#FADF4A"/>
<path d="M78.2133 22.4758C78.2727 22.654 78.3836 22.8106 78.5319 22.9258C78.6803 23.0411 78.8595 23.1097 79.0468 23.1231C79.2342 23.1365 79.4213 23.0941 79.5846 23.0012C79.7478 22.9083 79.8799 22.769 79.964 22.6011C80.0482 22.4331 80.0807 22.244 80.0573 22.0576C80.034 21.8712 79.956 21.6959 79.8331 21.5539C79.7102 21.4118 79.5479 21.3094 79.3668 21.2595C79.1857 21.2097 78.9939 21.2146 78.8156 21.2738C78.5766 21.3537 78.3791 21.5251 78.2662 21.7504C78.1533 21.9757 78.1343 22.2365 78.2133 22.4758V22.4758Z" fill="#FADF4A"/>
<path d="M58.5447 35.4161L57.1688 20.4801C57.1133 16.3145 54.6488 12.8747 50.4807 13.0461L50.0977 13.0839C48.2338 13.2698 46.5084 14.1511 45.2652 15.5521C44.022 16.9532 43.3523 18.7711 43.3894 20.6439C43.4574 24.2525 43.5784 28.2391 43.7951 30.1569C44.2386 34.1309 48.9208 34.267 48.9208 34.267L49.4248 37.732C49.4248 37.732 51.4408 38.934 54.3716 38.4174C57.5493 37.8529 58.5447 35.4161 58.5447 35.4161Z" fill="#FFBE9D"/>
<path d="M48.9132 34.2544C50.761 34.0726 52.5176 33.3632 53.9734 32.2107C53.9734 32.2107 53.0662 35.1944 49.0619 35.2347L48.9132 34.2544Z" fill="#EB996E"/>
<path d="M45.2591 23.5973C45.2757 23.743 45.3478 23.8768 45.4604 23.9706C45.5731 24.0645 45.7176 24.1113 45.8639 24.1013C45.9368 24.1004 46.0088 24.0848 46.0755 24.0554C46.1422 24.026 46.2023 23.9834 46.2522 23.9302C46.3021 23.8771 46.3408 23.8144 46.3658 23.7459C46.3909 23.6774 46.4019 23.6046 46.3982 23.5318C46.3847 23.3836 46.314 23.2465 46.2011 23.1496C46.0881 23.0526 45.9419 23.0035 45.7934 23.0127C45.7193 23.0142 45.6464 23.0308 45.5789 23.0613C45.5115 23.0919 45.4509 23.1358 45.401 23.1905C45.351 23.2452 45.3127 23.3094 45.2883 23.3794C45.2639 23.4493 45.254 23.5234 45.2591 23.5973Z" fill="#263238"/>
<path d="M44.4376 22.496C44.5157 22.5641 44.9139 22.2012 45.5262 22.1432C46.1386 22.0853 46.6149 22.3448 46.6754 22.2617C46.7031 22.2264 46.6174 22.1004 46.4082 21.9769C46.1261 21.8196 45.8019 21.7544 45.4809 21.7904C45.1627 21.8196 44.8623 21.9504 44.6241 22.1634C44.4502 22.3272 44.3998 22.4658 44.4376 22.496Z" fill="#263238"/>
<path d="M50.8738 23.0504C50.8866 23.1989 50.9572 23.3363 51.0702 23.4334C51.1833 23.5304 51.3299 23.5793 51.4786 23.5695C51.5514 23.5683 51.6232 23.5524 51.6897 23.5229C51.7563 23.4934 51.8163 23.4508 51.8661 23.3977C51.9159 23.3446 51.9545 23.282 51.9797 23.2137C52.0049 23.1454 52.0162 23.0727 52.0128 23C52.0006 22.8513 51.9302 22.7134 51.817 22.6162C51.7038 22.5191 51.5568 22.4704 51.408 22.4809C51.3353 22.4825 51.2637 22.4986 51.1973 22.5282C51.1309 22.5579 51.071 22.6004 51.0213 22.6535C50.9716 22.7065 50.9329 22.7689 50.9076 22.8371C50.8822 22.9052 50.8707 22.9778 50.8738 23.0504Z" fill="#263238"/>
<path d="M50.4579 22.0123C50.536 22.0778 50.9342 21.7174 51.5466 21.657C52.1589 21.5965 52.6352 21.8586 52.6932 21.7779C52.7234 21.7426 52.6403 21.6141 52.4412 21.4932C52.1593 21.335 51.8351 21.2689 51.5138 21.3042C51.1945 21.331 50.8923 21.4601 50.652 21.6721C50.4705 21.8409 50.4201 21.982 50.4579 22.0123Z" fill="#263238"/>
<path d="M48.6913 26.7649C48.6913 26.7296 48.3032 26.7019 47.6833 26.6843C47.5245 26.6843 47.3733 26.6691 47.3381 26.5633C47.3087 26.404 47.3289 26.2395 47.396 26.0921C47.5052 25.6989 47.6195 25.2873 47.7387 24.8573C48.21 23.0933 48.5351 21.6644 48.4645 21.6443C48.3939 21.6241 47.9605 23.0353 47.4817 24.7917C47.3691 25.2235 47.2616 25.6368 47.1591 26.0316C47.0787 26.2292 47.0716 26.4491 47.139 26.6515C47.1666 26.7046 47.2063 26.7505 47.2549 26.7856C47.3034 26.8206 47.3596 26.8437 47.4187 26.8531C47.5073 26.8652 47.5972 26.8652 47.6858 26.8531C48.3083 26.8355 48.6913 26.8002 48.6913 26.7649Z" fill="#263238"/>
<path d="M50.531 27.0093C50.4327 27.0093 50.4957 27.6771 49.9766 28.2038C49.4574 28.7305 48.7417 28.7279 48.7443 28.8212C48.7443 28.864 48.9156 28.9346 49.2155 28.9144C49.6044 28.8799 49.969 28.7106 50.2462 28.4356C50.5142 28.1682 50.6663 27.8062 50.6696 27.4276C50.667 27.158 50.5763 27.0017 50.531 27.0093Z" fill="#263238"/>
<path d="M50.0623 19.6308C50.1379 19.7921 50.7402 19.6535 51.4659 19.6661C52.1917 19.6787 52.7914 19.8198 52.8721 19.6661C52.9074 19.5905 52.7914 19.4444 52.5394 19.3058C52.2089 19.139 51.8437 19.0527 51.4735 19.0538C51.1018 19.0449 50.7334 19.1262 50.4 19.2906C50.148 19.404 50.027 19.5552 50.0623 19.6308Z" fill="#263238"/>
<path d="M44.4854 20.7043C44.6064 20.8328 45.0146 20.6464 45.5212 20.5884C46.0277 20.5304 46.4636 20.5884 46.5493 20.4347C46.5846 20.3591 46.504 20.228 46.2973 20.1146C46.03 19.9831 45.7297 19.9335 45.4342 19.9721C45.1388 20.0106 44.8613 20.1356 44.6366 20.3314C44.4779 20.4926 44.4325 20.6413 44.4854 20.7043Z" fill="#263238"/>
<path d="M43.596 18.7741C43.596 18.7741 44.3948 16.1785 45.5389 15.4754C46.9224 14.6287 47.7086 16.1608 49.0543 15.6367C50.4 15.1125 51.723 14.296 53.2451 15.2284C54.9133 16.2364 54.2682 17.1411 54.5404 18.895C55.6416 26.0115 57.1511 27.9065 57.1864 24.497C57.1864 24.124 58.1944 23.741 58.1944 22.1534C58.1944 20.1122 58.023 17.6476 57.4384 16.2566C56.9344 15.0848 56.1632 14.3162 54.8352 13.5199C52.736 12.2599 50.0472 12.4942 48.2479 12.8596C46.4486 13.225 43.1122 15.6694 43.596 18.7741Z" fill="#263238"/>
<path d="M56.9167 24.4138C56.9072 24.2674 56.9274 24.1206 56.9761 23.9823C57.0248 23.8439 57.101 23.7169 57.2001 23.6088C57.2993 23.5007 57.4193 23.4138 57.5529 23.3534C57.6865 23.2929 57.831 23.2602 57.9777 23.2571C58.7337 23.2571 59.5955 23.5948 59.6988 25.132C59.8828 27.8586 57.1057 27.4806 57.0957 27.4C57.0856 27.3193 56.9823 25.5578 56.9167 24.4138Z" fill="#FFBE9D"/>
<path d="M57.6199 26.3365C57.6199 26.3365 57.6703 26.3668 57.7534 26.3995C57.8697 26.4398 57.997 26.4335 58.1088 26.3819C58.3885 26.2559 58.6002 25.7821 58.5825 25.2907C58.5736 25.0568 58.5125 24.8277 58.4036 24.6204C58.3716 24.5369 58.3202 24.4623 58.2536 24.4027C58.1869 24.3431 58.1071 24.3002 58.0206 24.2777C57.9648 24.2688 57.9077 24.2788 57.8583 24.3062C57.809 24.3337 57.7703 24.3769 57.7484 24.4289C57.7182 24.507 57.7484 24.5599 57.7232 24.565C57.698 24.57 57.6627 24.5247 57.6778 24.4087C57.6882 24.3406 57.722 24.2781 57.7736 24.2323C57.8428 24.1711 57.9333 24.1394 58.0256 24.1441C58.1392 24.1586 58.2471 24.2022 58.339 24.2706C58.4308 24.3391 58.5034 24.43 58.5498 24.5347C58.6843 24.7646 58.7588 25.0246 58.7665 25.2907C58.7866 25.8401 58.5397 26.3743 58.1541 26.5155C58.0804 26.5404 58.002 26.5484 57.9248 26.5388C57.8475 26.5292 57.7735 26.5023 57.7081 26.46C57.63 26.4021 57.6123 26.3441 57.6199 26.3365Z" fill="#EB996E"/>
<path d="M56.337 19.152C56.0306 19.4558 55.6528 19.6776 55.2383 19.7971C54.8174 19.8828 54.3059 19.6863 54.1925 19.273C54.1421 19.0865 54.1673 18.8622 54.0261 18.7287C53.885 18.5951 53.5927 18.6505 53.3684 18.6984C52.9747 18.7664 52.5696 18.6987 52.2194 18.5064C51.8692 18.3141 51.5946 18.0087 51.4406 17.64C51.2693 17.9626 50.798 17.9953 50.4729 17.829C50.164 17.6271 49.8849 17.3828 49.6439 17.1033C49.3919 16.8513 49.0189 16.6421 48.6636 16.7303C48.4789 16.8147 48.2853 16.8781 48.0865 16.9193C47.7261 16.9193 47.5094 16.5211 47.4212 16.1633C47.333 15.8055 47.2473 15.4073 46.9172 15.241C46.5871 15.0747 46.2671 15.241 45.9445 15.3115C45.6219 15.3821 45.1885 15.3569 45.0701 15.0444C45.0477 14.9598 45.0426 14.8716 45.0552 14.785C45.0677 14.6984 45.0977 14.6152 45.1431 14.5404C45.3307 14.1881 45.6322 13.9098 45.9983 13.7509C46.3645 13.5921 46.7737 13.5621 47.1591 13.666C47.2482 13.2002 47.4733 12.7712 47.806 12.4333C48.1387 12.0954 48.5641 11.8636 49.0285 11.7674C49.4928 11.6711 49.9753 11.7146 50.415 11.8924C50.8546 12.0702 51.2317 12.3743 51.4986 12.7663C51.762 12.4761 52.0915 12.2537 52.4591 12.118C52.8268 11.9823 53.2218 11.9373 53.6105 11.9867C53.9993 12.0362 54.3704 12.1787 54.6924 12.4022C55.0144 12.6256 55.2777 12.9234 55.46 13.2703C55.7848 13.1458 56.1391 13.1201 56.4785 13.1964C56.8178 13.2726 57.127 13.4475 57.3673 13.6991C57.6075 13.9506 57.768 14.2676 57.8286 14.6101C57.8892 14.9525 57.8472 15.3053 57.7079 15.624C58.2245 15.8533 58.6932 16.2969 58.7587 16.8588C58.8242 17.4208 58.3328 18.0357 57.7734 17.9424C57.9003 18.1522 57.9437 18.4021 57.8951 18.6424C57.8465 18.8827 57.7093 19.096 57.5108 19.24C57.3123 19.384 57.0669 19.4481 56.8234 19.4196C56.5798 19.3912 56.3559 19.2723 56.1959 19.0865" fill="#263238"/>
<path d="M47.0508 14.495C47.048 14.5117 47.048 14.5287 47.0508 14.5454C47.0508 14.5782 47.0659 14.6286 47.0836 14.689C47.1388 14.8699 47.224 15.0403 47.3356 15.193C47.5108 15.4362 47.7392 15.6362 48.0034 15.7777C48.3526 15.9679 48.7538 16.0404 49.1475 15.9843L49.0971 15.9264C49.0669 16.0546 49.0627 16.1875 49.0848 16.3174C49.1068 16.4472 49.1547 16.5713 49.2256 16.6824C49.3715 16.9147 49.5506 17.1244 49.7573 17.3048C49.8582 17.411 49.9706 17.5056 50.0925 17.587C50.2302 17.6618 50.3843 17.7016 50.541 17.703C50.7038 17.7108 50.8661 17.6783 51.0133 17.6084C51.1606 17.5385 51.2883 17.4334 51.3852 17.3023L51.2794 17.2846C51.3455 17.5637 51.4694 17.8258 51.643 18.0541C51.8166 18.2824 52.0361 18.4718 52.2874 18.6102C52.5649 18.7754 52.8885 18.8462 53.2097 18.8118C53.5109 18.7688 53.8025 18.6742 54.0715 18.532L53.9959 18.5068C54.1692 18.8222 54.4187 19.089 54.7217 19.283C54.8614 19.381 55.0213 19.4465 55.1895 19.4748C55.3578 19.5032 55.5303 19.4936 55.6944 19.4468C55.9761 19.3552 56.2246 19.1829 56.4092 18.9513C56.5937 18.7197 56.7062 18.4389 56.7327 18.144L56.6722 18.1792C56.9745 18.3026 57.3101 18.3177 57.6222 18.2221C57.8548 18.1542 58.068 18.0325 58.2447 17.8668C58.3557 17.763 58.447 17.6401 58.5143 17.5039C58.5385 17.4575 58.5571 17.4085 58.5697 17.3577C58.48 17.5381 58.3588 17.7011 58.2119 17.839C58.0372 17.9927 57.8293 18.1039 57.6046 18.1641C57.3077 18.2482 56.991 18.2277 56.7075 18.1062L56.6545 18.0835V18.1414C56.624 18.4147 56.5145 18.6731 56.3396 18.8853C56.1646 19.0974 55.9317 19.254 55.6692 19.3359C55.5198 19.3772 55.3631 19.3846 55.2106 19.3575C55.058 19.3305 54.9133 19.2697 54.7872 19.1797C54.5005 18.9949 54.2648 18.741 54.1018 18.4413L54.0766 18.3934L54.0262 18.4186C53.7683 18.5529 53.4898 18.6432 53.2021 18.6858C52.9049 18.7163 52.6059 18.649 52.3504 18.4942C52.1125 18.3626 51.905 18.1824 51.7413 17.9653C51.5776 17.7482 51.4615 17.4991 51.4003 17.2342L51.3701 17.1082L51.2945 17.2141C51.2092 17.3297 51.0968 17.4225 50.9671 17.4845C50.8375 17.5464 50.6946 17.5756 50.5511 17.5694C50.4129 17.5689 50.277 17.5343 50.1555 17.4686C50.0404 17.3921 49.934 17.3033 49.8379 17.204C49.6373 17.0388 49.4608 16.8463 49.3138 16.632C49.1853 16.4328 49.14 16.1912 49.1878 15.9591L49.2029 15.8911H49.1349C48.7595 15.9503 48.375 15.8866 48.0387 15.7096C47.7802 15.5783 47.5539 15.3916 47.3759 15.1628C47.2298 14.9606 47.1199 14.7347 47.0508 14.495V14.495Z" fill="#455A64"/>
<path d="M57.9901 19.3889C57.9134 19.5544 57.8085 19.7053 57.6802 19.835C57.3897 20.1646 57.0496 20.4468 56.6722 20.6716C56.2944 20.9006 55.8828 21.0681 55.4525 21.168C55.2778 21.2206 55.0951 21.241 54.9132 21.2285C55.5023 21.0803 56.0705 20.8585 56.6041 20.5683C57.1137 20.2348 57.5793 19.8385 57.9901 19.3889V19.3889Z" fill="white"/>
<path d="M58.1767 20.7699C58.0888 20.9136 57.9781 21.0421 57.8491 21.1504C57.2585 21.7137 56.5463 22.1336 55.7676 22.3777C55.6071 22.4416 55.4363 22.4757 55.2635 22.4785C55.7903 22.2748 56.3037 22.0383 56.8008 21.7703C57.2788 21.4644 57.7383 21.1303 58.1767 20.7699V20.7699Z" fill="white"/>
<path d="M49.2308 36.3813L42.2605 38.3368C41.4325 38.5656 40.7044 39.064 40.1915 39.7531L35.0129 47.0132L36.6459 48.8856L75.2498 48.9032C75.2498 48.9032 73.7705 43.4802 73.2842 41.817C72.5508 39.297 71.5554 38.5939 70.6482 37.6766C70.2262 37.2998 69.7338 37.0103 69.1992 36.8248C67.5965 36.4746 59.9912 34.708 58.5447 34.7484C58.5447 34.7484 57.0554 38.2915 53.5627 38.2587C50.0699 38.226 49.2308 36.3813 49.2308 36.3813Z" fill="#455A64"/>
<path d="M65.404 42.8627C65.4292 42.8627 65.5048 42.5351 65.7392 42.0437C66.055 41.409 66.4701 40.8288 66.9689 40.3251C67.4738 39.8224 68.0127 39.3551 68.5817 38.9265C68.8245 38.7563 69.0544 38.5684 69.2697 38.3645C69.0031 38.4998 68.75 38.6601 68.5137 38.8433C67.9202 39.2504 67.3659 39.7119 66.858 40.2217C66.3461 40.7352 65.9327 41.3382 65.6384 42.0009C65.5516 42.2022 65.4816 42.4104 65.4292 42.6233C65.4067 42.701 65.3982 42.782 65.404 42.8627V42.8627Z" fill="#263238"/>
<path d="M42.9961 47.1416C43.0322 46.8617 43.0415 46.5791 43.0239 46.2974C43.0239 45.7758 42.9911 45.0576 42.9306 44.2638C42.8701 43.47 42.787 42.7518 42.7139 42.2478C42.6879 41.9673 42.6364 41.6898 42.5602 41.4187C42.5518 41.7002 42.5687 41.9819 42.6106 42.2604C42.6585 42.8223 42.7189 43.5204 42.7819 44.2764C42.8449 45.0324 42.8802 45.7355 42.9205 46.2924C42.9223 46.5771 42.9476 46.8611 42.9961 47.1416V47.1416Z" fill="#263238"/>
<g opacity="0.3">
<path opacity="0.3" d="M40.6022 48.1723C41.2729 48.0173 41.8951 47.6997 42.4141 47.2475C42.903 46.7662 43.1701 45.9875 42.8702 45.3751C43.3537 46.4024 44.1237 47.2681 45.0876 47.868C46.0514 48.468 47.1681 48.7767 48.3033 48.757L38.6794 48.8754C39.2887 48.5621 39.9346 48.3259 40.6022 48.1723Z" fill="black"/>
</g>
<g opacity="0.3">
<path opacity="0.3" d="M64.6631 48.8855L64.8244 45.1433L62.196 48.8805L64.6631 48.8855Z" fill="black"/>
</g>
<path d="M64.6631 48.888C64.6394 48.1492 64.6587 47.4095 64.7211 46.6729C64.7409 45.9333 64.8032 45.1954 64.9076 44.4629C64.9313 45.2018 64.912 45.9414 64.8496 46.678C64.8298 47.4176 64.7675 48.1555 64.6631 48.888V48.888Z" fill="#263238"/>
<path d="M58.6025 45.6271H79.4706L80.6626 44.4352H93.3508C93.7625 44.4352 94.1573 44.5987 94.4485 44.8898C94.7396 45.181 94.9031 45.5758 94.9031 45.9875V48.0841H57.2039L57.1586 47.1543C57.1487 46.9581 57.1787 46.762 57.2467 46.5777C57.3147 46.3934 57.4193 46.2249 57.5542 46.0822C57.6892 45.9394 57.8516 45.8256 58.0318 45.7474C58.212 45.6691 58.4061 45.6283 58.6025 45.6271V45.6271Z" fill="#FADF4A"/>
<path d="M29.2319 78.808L29.5116 51.02C29.5189 50.2415 29.8333 49.4974 30.3864 48.9495C30.9395 48.4016 31.6865 48.0942 32.4651 48.0942H96.3194C97.0987 48.0942 97.8466 48.4023 98.3998 48.9512C98.953 49.5002 99.2668 50.2456 99.2728 51.025L99.482 78.808L102.42 90.9443V95.2812H100.339V107.702C100.337 109.882 99.4705 111.972 97.9286 113.513C96.3867 115.054 94.2959 115.92 92.116 115.92H35.353C33.1722 115.92 31.0807 115.054 29.5386 113.512C27.9965 111.97 27.1302 109.878 27.1302 107.697V94.752H25.0487V90.9443L29.2319 78.808Z" fill="#FADF4A"/>
<path d="M29.2319 78.808C29.2319 78.808 29.1437 79.0776 28.9673 79.5993L28.171 81.9277L25.0764 90.9544C25.0764 92.1489 25.0764 93.4206 25.0764 94.7697L25.0436 94.7394H27.1579V94.752C27.1579 97.4661 27.1579 100.462 27.1579 103.721C27.1579 104.536 27.1579 105.366 27.1579 106.213C27.1318 107.073 27.1595 107.934 27.2411 108.791C27.352 109.675 27.6155 110.532 28.0198 111.326C28.4305 112.15 28.9755 112.901 29.6326 113.546C31.0261 114.904 32.8594 115.718 34.8011 115.842C35.3051 115.877 35.8091 115.867 36.3131 115.87H40.9574H54.2152H84.062H92.126C93.4912 115.854 94.8322 115.508 96.0346 114.862L96.4705 114.595L96.6898 114.461L96.8964 114.307L97.3072 114L97.6877 113.652L97.8792 113.478L98.0531 113.289L98.4008 112.906L98.7133 112.493L98.867 112.286C98.9174 112.216 98.9578 112.14 99.0031 112.067L99.2728 111.623C99.3559 111.472 99.4265 111.313 99.5021 111.157C99.6498 110.844 99.7786 110.521 99.8876 110.192C100.097 109.527 100.221 108.837 100.256 108.141C100.281 107.793 100.278 107.44 100.278 107.087V103.9C100.278 101.054 100.278 98.1809 100.278 95.2812V95.2157H102.425L102.36 95.2812V90.972C102.062 89.7397 101.74 88.4092 101.417 87.0761C100.732 84.2537 100.054 81.4515 99.4214 78.8382V78.8231C99.3534 69.8368 99.2879 61.0873 99.2249 52.6554C99.1745 51.6147 99.3811 50.5059 98.8217 49.6113C98.5651 49.171 98.1971 48.8059 97.7548 48.5529C97.3124 48.2999 96.8113 48.1678 96.3017 48.1698H78.2912L37.437 48.132H33.1958C32.8531 48.132 32.5079 48.132 32.1878 48.1471C31.8567 48.1819 31.5338 48.2722 31.2328 48.4143C30.6369 48.6945 30.1549 49.1703 29.8669 49.7625C29.7248 50.0481 29.632 50.3557 29.5922 50.6722C29.557 50.9872 29.5645 51.3072 29.5595 51.6222C29.5595 52.2573 29.5595 52.8822 29.5393 53.4921C29.5259 54.7202 29.5133 55.9079 29.5015 57.0553C29.4511 61.6443 29.4083 65.5906 29.373 68.8137C29.3377 72.0368 29.305 74.5341 29.2848 76.2275C29.2848 77.0717 29.2646 77.7168 29.2596 78.1503C29.2546 78.5837 29.2596 78.8029 29.2596 78.8029C29.2596 78.8029 29.2596 78.5812 29.2596 78.1477C29.2596 77.7143 29.2596 77.0692 29.2596 76.2225C29.2747 74.529 29.2949 72.0317 29.3226 68.8086C29.3503 65.5855 29.3881 61.6392 29.431 57.0503C29.441 55.9045 29.452 54.7176 29.4637 53.4895C29.4637 52.8772 29.4637 52.2548 29.4814 51.6222C29.4814 51.3072 29.4814 50.9872 29.5116 50.6621C29.5763 50.1652 29.7645 49.6924 30.059 49.287C30.3535 48.8816 30.7449 48.5564 31.1975 48.3412C31.5071 48.1935 31.8393 48.099 32.1803 48.0615C32.5255 48.0363 32.8632 48.0615 33.2084 48.0463H37.4496H78.3038H96.2891C96.6881 48.0434 97.0838 48.1194 97.4533 48.27C97.8228 48.4206 98.1588 48.6429 98.442 48.924C98.7253 49.2051 98.95 49.5395 99.1034 49.9079C99.2568 50.2762 99.3358 50.6713 99.3358 51.0703C99.3358 51.5945 99.3358 52.1212 99.3484 52.6479C99.4114 61.0798 99.4794 69.8292 99.5474 78.813V78.7979C100.182 81.4137 100.86 84.2159 101.543 87.0358C101.866 88.3714 102.188 89.702 102.488 90.9342V95.3518H100.341L100.407 95.2863V107.1C100.407 107.453 100.407 107.806 100.384 108.161C100.349 108.869 100.223 109.569 100.011 110.245C99.9002 110.579 99.7689 110.907 99.618 111.225C99.5399 111.382 99.4693 111.543 99.3862 111.699L99.109 112.14C99.0636 112.216 99.0208 112.291 98.9704 112.364L98.8141 112.573L98.4966 112.994L98.1438 113.382L97.9674 113.576L97.7734 113.75L97.3878 114.103L96.9695 114.408L96.7603 114.564L96.5386 114.7L96.0925 114.97C94.8712 115.624 93.5088 115.97 92.1235 115.978H84.0595H54.2126H40.9549H36.3181C35.8141 115.978 35.3101 115.978 34.8061 115.95C32.8427 115.825 30.9892 114.999 29.5822 113.624C28.9192 112.97 28.3683 112.212 27.9517 111.379C27.5456 110.575 27.2806 109.707 27.168 108.814C27.0875 107.953 27.0606 107.089 27.0874 106.226C27.0874 105.379 27.0874 104.547 27.0874 103.733C27.0874 100.475 27.0874 97.4787 27.0874 94.7646L27.1201 94.7999H25.0184V94.752C25.0184 93.408 25.0184 92.1363 25.0184 90.9367C26.3818 87.0055 27.4301 83.974 28.1407 81.9252L28.9496 79.5993C29.1361 79.0751 29.2319 78.808 29.2319 78.808Z" fill="#263238"/>
<path d="M43.4188 74.1139C45.4145 71.9482 45.2766 68.5748 43.1109 66.5791C40.9453 64.5835 37.5718 64.7213 35.5762 66.887C33.5806 69.0527 33.7184 72.4261 35.8841 74.4218C38.0498 76.4174 41.4232 76.2796 43.4188 74.1139Z" fill="#E0E0E0"/>
<path d="M44.8308 70.4996C44.823 70.4716 44.8188 70.4429 44.8182 70.4139C44.8182 70.3484 44.8182 70.2652 44.8006 70.1619C44.7942 70.0248 44.7782 69.8884 44.7527 69.7536C44.7264 69.5692 44.6885 69.3865 44.6393 69.2068C44.5134 68.7099 44.3129 68.2349 44.0446 67.7981C43.6951 67.2174 43.2375 66.7093 42.6964 66.3012C42.0423 65.8032 41.2799 65.4665 40.4712 65.3184C39.5431 65.1471 38.586 65.2272 37.6992 65.5503C37.4635 65.6358 37.2337 65.7369 37.0112 65.8527C36.7868 65.9761 36.5712 66.115 36.3661 66.2685C36.1556 66.4225 35.9561 66.5909 35.7689 66.7725C35.5884 66.9651 35.42 67.1688 35.2649 67.3823C34.9373 67.8229 34.6821 68.3129 34.5089 68.8338C34.1494 69.9126 34.1494 71.0789 34.5089 72.1577C34.6821 72.6787 34.9373 73.1687 35.2649 73.6092C35.4186 73.8247 35.587 74.0293 35.7689 74.2216C35.9574 74.4018 36.1568 74.5701 36.3661 74.7256C36.5712 74.879 36.7868 75.018 37.0112 75.1414C37.2337 75.2572 37.4635 75.3582 37.6992 75.4438C38.8531 75.863 40.1168 75.868 41.2739 75.4579C42.4311 75.0478 43.4096 74.2482 44.042 73.196C44.3099 72.7589 44.5104 72.284 44.6368 71.7873C44.6863 71.6068 44.7242 71.4233 44.7502 71.2379C44.776 71.1032 44.792 70.9667 44.798 70.8297C44.798 70.7264 44.8106 70.6407 44.8157 70.5777C44.8159 70.5487 44.8202 70.5198 44.8283 70.492C44.8311 70.5205 44.8311 70.5492 44.8283 70.5777C44.8283 70.6432 44.8283 70.7264 44.8283 70.8297C44.8283 70.9674 44.8165 71.1048 44.793 71.2404C44.7733 71.4285 44.7388 71.6147 44.6897 71.7974C44.5714 72.3023 44.3759 72.7859 44.1101 73.2312C43.7222 73.8881 43.1993 74.4551 42.5759 74.8947C41.9525 75.3344 41.2428 75.6366 40.4939 75.7815C39.5472 75.9589 38.5703 75.8806 37.6639 75.5547C37.4224 75.4675 37.1867 75.3648 36.9583 75.2472C36.726 75.1281 36.5021 74.9934 36.288 74.844C36.0729 74.6835 35.8684 74.5092 35.6756 74.3224C35.4853 74.1272 35.3085 73.9192 35.1464 73.7C34.8106 73.249 34.5494 72.747 34.3728 72.2132C34.0032 71.1076 34.0032 69.9117 34.3728 68.8061C34.5489 68.2721 34.8101 67.77 35.1464 67.3193C35.3091 67.0997 35.4859 66.891 35.6756 66.6944C35.8684 66.5083 36.0729 66.3349 36.288 66.1752C36.499 66.0192 36.7205 65.8778 36.9508 65.7519C37.1786 65.6333 37.4144 65.5306 37.6564 65.4444C38.5625 65.1173 39.5397 65.039 40.4863 65.2176C41.2344 65.3603 41.9436 65.6606 42.5667 66.0986C43.1898 66.5365 43.7125 67.1022 44.1 67.7578C44.3658 68.2031 44.5613 68.6867 44.6796 69.1917C44.7285 69.3735 44.763 69.5589 44.7829 69.7461C44.8065 69.8826 44.8183 70.0208 44.8182 70.1594C44.8182 70.2652 44.8182 70.3484 44.8182 70.4114C44.8253 70.4403 44.8295 70.4698 44.8308 70.4996V70.4996Z" fill="#263238"/>
<g opacity="0.3">
<path opacity="0.3" d="M25.0487 90.9442H102.42L99.482 78.8104H29.2344L25.0487 90.9442Z" fill="black"/>
</g>
<path d="M93.88 62.7329H84.9869C84.6528 62.7329 84.3323 62.6001 84.096 62.3638C83.8597 62.1275 83.7269 61.807 83.7269 61.4729V52.5697C83.7269 52.2355 83.8597 51.915 84.096 51.6787C84.3323 51.4424 84.6528 51.3097 84.9869 51.3097H93.88C94.2142 51.3097 94.5347 51.4424 94.771 51.6787C95.0073 51.915 95.14 52.2355 95.14 52.5697V61.4628C95.1413 61.6291 95.1097 61.794 95.047 61.9481C94.9843 62.1021 94.8917 62.2422 94.7745 62.3603C94.6574 62.4783 94.5181 62.572 94.3645 62.636C94.211 62.6999 94.0463 62.7329 93.88 62.7329V62.7329ZM84.9869 51.5516C84.7196 51.5516 84.4632 51.6578 84.2742 51.8468C84.0851 52.0359 83.9789 52.2923 83.9789 52.5596V61.4628C83.9789 61.7301 84.0851 61.9865 84.2742 62.1755C84.4632 62.3646 84.7196 62.4708 84.9869 62.4708H93.88C94.1473 62.4708 94.4037 62.3646 94.5928 62.1755C94.7818 61.9865 94.888 61.7301 94.888 61.4628V52.5697C94.888 52.3024 94.7818 52.046 94.5928 51.8569C94.4037 51.6679 94.1473 51.5617 93.88 51.5617L84.9869 51.5516Z" fill="#263238"/>
<path d="M94.3809 58.1778C95.0198 55.4472 93.3242 52.7156 90.5935 52.0767C87.8629 51.4377 85.1313 53.1333 84.4924 55.864C83.8534 58.5946 85.5491 61.3262 88.2797 61.9652C91.0103 62.6041 93.7419 60.9085 94.3809 58.1778Z" fill="#263238"/>
<path d="M47.7741 53.8221H35.2447C34.2969 53.8221 33.5286 54.5905 33.5286 55.5383V58.5371C33.5286 59.4848 34.2969 60.2532 35.2447 60.2532H47.7741C48.7219 60.2532 49.4902 59.4848 49.4902 58.5371V55.5383C49.4902 54.5905 48.7219 53.8221 47.7741 53.8221Z" fill="#FAFAFA"/>
<path d="M47.7741 60.2507C47.9141 60.2388 48.0531 60.2169 48.1899 60.1852C48.5819 60.0809 48.924 59.8406 49.1551 59.5073C49.3214 59.2694 49.423 58.9924 49.4499 58.7034C49.4651 58.3859 49.4499 58.0331 49.4499 57.6576C49.4499 57.2821 49.4499 56.8789 49.4499 56.453C49.4499 56.2414 49.4499 56.0221 49.4499 55.7953C49.4608 55.5686 49.4414 55.3415 49.392 55.12C49.3309 54.8864 49.2196 54.6689 49.066 54.4827C48.9124 54.2964 48.7201 54.1458 48.5024 54.0414C48.0513 53.7894 47.4944 53.8927 46.9425 53.8751H43.3893H35.2472C34.9019 53.8764 34.5656 53.9854 34.2851 54.1869C34.0046 54.3883 33.7939 54.6722 33.6823 54.999C33.5988 55.3281 33.569 55.6684 33.5941 56.007V58.0482C33.5688 58.3727 33.5943 58.6992 33.6697 59.0159C33.7645 59.3118 33.9404 59.5751 34.1773 59.776C34.4143 59.9769 34.7029 60.1073 35.0103 60.1524C35.1617 60.1698 35.3142 60.1757 35.4665 60.17H36.8298H38.5535H41.6505L46.1336 60.1902H47.3508H47.6683C47.7043 60.1864 47.7406 60.1864 47.7767 60.1902H47.6683H47.3508L46.1336 60.2028L41.6505 60.2255H38.5535H35.4639C35.3057 60.2312 35.1473 60.2244 34.9902 60.2053C34.66 60.158 34.3497 60.0187 34.0948 59.8035C33.84 59.5883 33.6507 59.3058 33.5487 58.9882C33.4985 58.8247 33.4705 58.6551 33.4656 58.4842C33.4656 58.3178 33.4656 58.1515 33.4656 57.9802V55.5055C33.4702 55.323 33.5016 55.1421 33.5588 54.9688C33.6787 54.6159 33.9059 54.3093 34.2086 54.0919C34.5114 53.8746 34.8745 53.7573 35.2472 53.7566H43.3893H46.9425H47.7615C48.0342 53.7547 48.3035 53.8169 48.5478 53.9381C48.7773 54.0501 48.9798 54.2107 49.1412 54.4086C49.3027 54.6066 49.4192 54.8373 49.4827 55.0847C49.5318 55.3139 49.5505 55.5486 49.5381 55.7827C49.5381 56.0095 49.5381 56.2288 49.5381 56.4404C49.5381 56.8663 49.5381 57.2695 49.5381 57.645C49.5381 58.0205 49.5381 58.3682 49.523 58.6958C49.4912 58.994 49.3827 59.2787 49.208 59.5224C48.9656 59.8629 48.6071 60.1031 48.2 60.1978C48.0618 60.238 47.918 60.2559 47.7741 60.2507V60.2507Z" fill="#263238"/>
<path d="M65.4318 78.2385C73.0781 78.2385 79.2767 72.0399 79.2767 64.3936C79.2767 56.7473 73.0781 50.5487 65.4318 50.5487C57.7855 50.5487 51.5869 56.7473 51.5869 64.3936C51.5869 72.0399 57.7855 78.2385 65.4318 78.2385Z" fill="#263238"/>
<path d="M65.4318 78.3721C62.6685 78.3721 59.9673 77.5526 57.6698 76.0174C55.3722 74.4821 53.5815 72.3 52.5242 69.747C51.4668 67.194 51.1903 64.3848 51.7296 61.6747C52.2688 58.9645 53.5997 56.4751 55.5538 54.5214C57.5079 52.5676 59.9975 51.2372 62.7078 50.6984C65.418 50.1597 68.2272 50.4367 70.78 51.4945C73.3328 52.5523 75.5146 54.3434 77.0494 56.6412C78.5842 58.939 79.4032 61.6404 79.4027 64.4037C79.3987 68.1076 77.9254 71.6585 75.3062 74.2773C72.6869 76.8961 69.1357 78.3687 65.4318 78.3721ZM65.4318 50.6848C62.7185 50.6848 60.0661 51.4894 57.81 52.9969C55.554 54.5043 53.7956 56.6469 52.7572 59.1537C51.7189 61.6605 51.4472 64.4189 51.9765 67.0801C52.5059 69.7413 53.8125 72.1858 55.7311 74.1044C57.6497 76.023 60.0942 77.3296 62.7554 77.859C65.4166 78.3883 68.175 78.1166 70.6818 77.0783C73.1886 76.0399 75.3312 74.2816 76.8387 72.0255C78.3461 69.7694 79.1507 67.117 79.1507 64.4037C79.1494 60.7647 77.7039 57.275 75.1317 54.7009C72.5595 52.1268 69.0708 50.6787 65.4318 50.6747V50.6848Z" fill="#455A64"/>
<path d="M65.4318 76.9759C62.8928 76.9734 60.4116 76.2182 58.3018 74.8058C56.1919 73.3933 54.5483 71.3871 53.5785 69.0406C52.6087 66.6942 52.3564 64.1129 52.8534 61.623C53.3505 59.1332 54.5745 56.8466 56.3709 55.0524C58.1673 53.2581 60.4553 52.0367 62.9457 51.5426C65.4361 51.0485 68.0171 51.3039 70.3625 52.2764C72.7078 53.2489 74.7121 54.895 76.122 57.0065C77.532 59.118 78.2843 61.6001 78.2838 64.139C78.2798 67.545 76.924 70.81 74.5142 73.217C72.1044 75.6239 68.8377 76.9759 65.4318 76.9759V76.9759ZM65.4318 51.5516C62.9433 51.5541 60.5114 52.2942 58.4433 53.6782C56.3753 55.0623 54.7639 57.0283 53.8127 59.3279C52.8616 61.6274 52.6134 64.1573 53.0995 66.5978C53.5856 69.0383 54.7841 71.28 56.5438 73.0397C58.3034 74.7993 60.5451 75.9979 62.9856 76.4839C65.4262 76.97 67.956 76.7218 70.2556 75.7707C72.5551 74.8195 74.5211 73.2081 75.9052 71.1401C77.2893 69.072 78.0293 66.6401 78.0318 64.1516C78.0318 60.8099 76.7043 57.605 74.3413 55.2421C71.9784 52.8791 68.7735 51.5516 65.4318 51.5516Z" fill="#455A64"/>
<path d="M65.4318 74.5845C71.1213 74.5845 75.7335 69.9722 75.7335 64.2827C75.7335 58.5932 71.1213 53.981 65.4318 53.981C59.7423 53.981 55.13 58.5932 55.13 64.2827C55.13 69.9722 59.7423 74.5845 65.4318 74.5845Z" fill="#455A64"/>
<path d="M42.4291 73.195C43.914 71.575 43.8046 69.058 42.1846 67.573C40.5646 66.0881 38.0476 66.1975 36.5626 67.8175C35.0777 69.4375 35.1871 71.9545 36.8071 73.4395C38.4271 74.9244 40.9441 74.815 42.4291 73.195Z" fill="#FADF4A"/>
<path d="M43.4774 70.4995C43.4494 70.1747 43.3988 69.8522 43.3262 69.5343C43.2322 69.1645 43.0826 68.8111 42.8827 68.486C42.6204 68.0541 42.2783 67.6761 41.8747 67.3722C41.3872 67.0035 40.8202 66.7541 40.2191 66.6439C39.5295 66.5188 38.8191 66.5788 38.1602 66.8178C37.8049 66.9444 37.4709 67.1246 37.1699 67.352C37.0145 67.4689 36.8664 67.5952 36.7264 67.73C36.5887 67.8734 36.4607 68.0257 36.3433 68.1861C35.8489 68.8561 35.5821 69.6669 35.5821 70.4995C35.5821 71.3321 35.8489 72.1429 36.3433 72.8129C36.46 72.973 36.588 73.1246 36.7264 73.2665C36.8652 73.4026 37.0134 73.5289 37.1699 73.6445C37.4703 73.8728 37.8044 74.0531 38.1602 74.1787C39.0182 74.4901 39.9576 74.4943 40.8183 74.1906C41.679 73.8868 42.4077 73.2939 42.8802 72.513C43.0798 72.1878 43.2293 71.8344 43.3237 71.4647C43.3963 71.1468 43.4468 70.8243 43.4749 70.4995C43.4749 70.4995 43.4749 70.5222 43.4749 70.5625C43.4749 70.6028 43.4749 70.6759 43.4749 70.754C43.4751 70.857 43.4667 70.9599 43.4497 71.0615C43.4339 71.2016 43.4086 71.3405 43.3741 71.4773C43.2857 71.8549 43.1404 72.2169 42.9432 72.5508C42.6533 73.0424 42.2624 73.4669 41.7963 73.7962C41.3302 74.1255 40.7995 74.3521 40.2392 74.4609C39.5305 74.5965 38.7983 74.5382 38.1199 74.2921C37.7521 74.1634 37.4061 73.979 37.0943 73.7453C36.9327 73.6265 36.7795 73.4968 36.6356 73.3572C36.493 73.2097 36.36 73.0531 36.2375 72.8885C35.7259 72.1951 35.4498 71.3561 35.4498 70.4945C35.4498 69.6328 35.7259 68.7938 36.2375 68.1005C36.3584 67.936 36.4906 67.7803 36.6331 67.6343C36.7776 67.4945 36.9308 67.364 37.0918 67.2437C37.4036 67.0099 37.7495 66.8255 38.1174 66.6968C38.7962 66.4528 39.5281 66.3954 40.2367 66.5305C40.7974 66.6382 41.3286 66.8642 41.7949 67.1937C42.2612 67.5231 42.6518 67.9482 42.9407 68.4407C43.1383 68.7744 43.2836 69.1364 43.3716 69.5142C43.4061 69.6509 43.4314 69.7898 43.4472 69.93C43.4641 70.0316 43.4726 70.1344 43.4724 70.2374C43.4724 70.313 43.4724 70.376 43.4724 70.4264C43.4724 70.4768 43.4774 70.4995 43.4774 70.4995Z" fill="#263238"/>
<path d="M41.1945 67.6192C40.9708 67.5106 40.7401 67.4172 40.504 67.3395C39.8531 67.1443 39.1585 67.1495 38.5107 67.3546C38.0352 67.5084 37.6007 67.7679 37.2398 68.1135C36.8789 68.4592 36.6009 68.8821 36.4266 69.3504C36.326 69.6196 36.2616 69.9009 36.2351 70.1871C36.2084 70.4857 36.222 70.7866 36.2754 71.0817C36.3881 71.7043 36.6786 72.281 37.112 72.742C37.5453 73.2031 38.1029 73.5288 38.7173 73.6798C39.2905 73.8201 39.8906 73.8053 40.4561 73.6369C40.9655 73.4793 41.4302 73.2029 41.8119 72.8305C42.1417 72.5038 42.3992 72.1114 42.5679 71.6789C42.8136 71.0454 42.8628 70.3525 42.709 69.6906C42.666 69.5114 42.6104 69.3354 42.5427 69.1639C42.5147 69.1053 42.4911 69.0446 42.4721 68.9825C42.4823 68.9962 42.4915 69.0105 42.4998 69.0253C42.515 69.0531 42.5376 69.0959 42.5654 69.1539C42.6467 69.322 42.7116 69.4975 42.7594 69.678C42.9346 70.3506 42.8976 71.0609 42.6536 71.7117C42.4841 72.1601 42.2222 72.568 41.885 72.9087C41.4921 73.2967 41.0128 73.5861 40.4864 73.7529C39.9004 73.9313 39.2771 73.9487 38.682 73.8033C38.0418 73.6499 37.4608 73.3116 37.0113 72.8305C36.5609 72.3511 36.259 71.7516 36.1419 71.1043C36.0893 70.7973 36.0766 70.4848 36.1041 70.1745C36.1895 69.321 36.5946 68.5315 37.2381 67.9644C37.5962 67.645 38.0191 67.4069 38.4779 67.2664C39.1427 67.0632 39.854 67.0712 40.5141 67.2891C40.6889 67.3484 40.8577 67.4244 41.0181 67.5159L41.1441 67.5889L41.1945 67.6192Z" fill="#263238"/>
<path d="M99.482 78.808C99.482 78.8458 83.7547 78.876 64.3607 78.876C44.9668 78.876 29.2319 78.8458 29.2319 78.808C29.2319 78.7702 44.9542 78.7424 64.3582 78.7424C83.7622 78.7424 99.482 78.7727 99.482 78.808Z" fill="#263238"/>
<path d="M101.652 95.2964H101.458H100.891H98.7108H90.6946C83.9259 95.2712 74.5666 95.1855 64.2498 95.0671C53.9329 94.9486 44.566 94.8478 37.7898 94.8025L29.7762 94.7521L27.5964 94.7369H27.0294H26.8353H27.0294H27.5964H29.7762H37.7923C44.561 94.7596 53.9203 94.8453 64.2523 94.9637C74.5843 95.0822 83.9285 95.183 90.6972 95.2309L98.7133 95.2813L100.893 95.2964H101.46H101.652Z" fill="#263238"/>
<path d="M93.9179 106.311H33.5513V109.577H93.9179V106.311Z" fill="#263238"/>
<path d="M34.8894 107.944L30.4718 119.965H97.597L92.4991 107.944H34.8894Z" fill="white"/>
<path d="M34.8893 107.944C34.8893 107.944 34.9825 107.944 35.169 107.944H36.0006H39.2262L51.2643 107.927L92.499 107.899H92.5419L92.557 107.939C94.1975 111.802 95.9061 115.832 97.6575 119.96L97.6953 120.05H92.9677L30.4717 120.023H30.4188L30.4365 119.972L33.7125 111.112L34.5844 108.766C34.6827 108.514 34.7583 108.302 34.8087 108.163C34.8591 108.025 34.8868 107.964 34.8868 107.964C34.8868 107.964 34.8641 108.035 34.8162 108.174L34.597 108.781L33.7427 111.132C32.9867 113.191 31.893 116.195 30.507 119.99L30.4743 119.942L92.9703 119.912H97.5995L97.539 120.002C95.7876 115.875 94.0816 111.845 92.4436 107.982L92.5015 108.02L51.3021 107.992L39.2514 107.974H36.0157H35.1791L34.8893 107.944Z" fill="#263238"/>
<g opacity="0.3">
<path opacity="0.3" d="M72.0342 69.048C71.9082 67.7527 70.7742 67.284 69.7082 67.1479C67.4629 66.8329 64.9202 67.4755 63.0756 66.1651C62.4872 65.7322 62.0376 65.1373 61.7816 64.453C61.5256 63.7688 61.4744 63.0249 61.6342 62.312C61.8862 61.231 62.6422 60.044 61.9088 59.1318C61.7663 58.9624 61.5896 58.825 61.3902 58.7286C61.1909 58.6322 60.9735 58.5789 60.7522 58.5724C60.3316 58.5612 59.9142 58.6475 59.5325 58.8244C58.7076 59.1883 58.0369 59.8305 57.6374 60.6388C56.7079 62.552 56.5377 64.7463 57.1611 66.78C57.5419 68.0477 58.2027 69.2136 59.0947 70.1916C59.9867 71.1695 61.0871 71.9344 62.3146 72.4299C63.5495 72.9062 64.8734 73.1079 66.1942 73.0209C67.515 72.9338 68.801 72.5602 69.9628 71.9259C70.8372 71.4445 71.6612 70.7893 71.9561 69.7864C72.0283 69.5473 72.0548 69.2969 72.0342 69.048V69.048Z" fill="white"/>
</g>
<g opacity="0.3">
<path opacity="0.3" d="M66.3692 57.1839C66.3697 57.3929 66.3081 57.5974 66.1923 57.7714C66.0765 57.9454 65.9116 58.0812 65.7186 58.1614C65.5255 58.2416 65.313 58.2627 65.108 58.2221C64.9029 58.1814 64.7145 58.0808 64.5667 57.933C64.4189 57.7852 64.3183 57.5968 64.2776 57.3917C64.237 57.1867 64.2581 56.9742 64.3383 56.7811C64.4185 56.5881 64.5543 56.4232 64.7283 56.3074C64.9023 56.1916 65.1068 56.13 65.3158 56.1305C65.5952 56.1305 65.8632 56.2415 66.0607 56.439C66.2582 56.6366 66.3692 56.9045 66.3692 57.1839V57.1839Z" fill="white"/>
</g>
<path d="M61.7929 73.3874C61.7315 73.3699 61.6723 73.3454 61.6165 73.3143C61.5056 73.2589 61.3342 73.1909 61.1301 73.0623C60.5408 72.7415 59.9867 72.3597 59.477 71.9233C58.7186 71.2759 58.059 70.5212 57.519 69.683C56.164 67.6183 55.6426 65.1165 56.0599 62.6825C56.2189 61.7026 56.5194 60.751 56.952 59.8575C57.2442 59.2542 57.5989 58.6832 58.0104 58.154C58.1515 57.965 58.2825 57.834 58.3632 57.7382C58.4033 57.6888 58.4471 57.6425 58.4942 57.5996C58.4617 57.6547 58.4246 57.707 58.3833 57.7558C58.3102 57.8566 58.1868 57.9902 58.0532 58.1868C57.6619 58.7227 57.3242 59.2958 57.0452 59.8978C56.6238 60.7899 56.3327 61.7379 56.1808 62.7127C55.7806 65.1168 56.2949 67.5836 57.6223 69.6276C58.1515 70.4596 58.7964 71.2123 59.5375 71.8628C60.0377 72.3024 60.5796 72.6923 61.1553 73.0271C61.3544 73.1531 61.5232 73.2261 61.6291 73.2791C61.6872 73.3096 61.742 73.3459 61.7929 73.3874Z" fill="white"/>
<path d="M66.0668 74.0578C65.7137 74.1027 65.3564 74.1027 65.0033 74.0578C64.6469 74.0591 64.2915 74.0177 63.9449 73.9343C64.2988 73.8894 64.657 73.8894 65.0109 73.9343C65.3665 73.9331 65.721 73.9745 66.0668 74.0578V74.0578Z" fill="white"/>
<path d="M75.0355 65.6813C75.0077 65.6813 75.1237 65.1773 75.1615 64.3784C75.1615 64.1743 75.1741 63.9551 75.1615 63.7182C75.1489 63.4813 75.1312 63.2268 75.106 62.9622C74.9672 61.8123 74.6078 60.6999 74.0476 59.6862C73.9115 59.4568 73.7956 59.2326 73.652 59.041C73.5083 58.8495 73.4 58.6656 73.2639 58.5043C72.7599 57.8718 72.3819 57.5416 72.3995 57.5215C72.4982 57.586 72.5895 57.6612 72.6717 57.7458C72.7766 57.8363 72.8759 57.9331 72.969 58.0356C73.0799 58.1565 73.221 58.2876 73.337 58.4463C73.4802 58.6167 73.6148 58.7942 73.7402 58.978C73.8838 59.1721 74.0123 59.3964 74.1535 59.6257C74.7333 60.6509 75.0978 61.7836 75.2245 62.9546C75.2522 63.2057 75.2674 63.458 75.2698 63.7106C75.277 63.9334 75.2711 64.1564 75.2522 64.3784C75.2426 64.5616 75.2233 64.7441 75.1942 64.9253C75.1787 65.0626 75.1551 65.1989 75.1237 65.3335C75.1041 65.4517 75.0746 65.568 75.0355 65.6813Z" fill="white"/>
<g opacity="0.3">
<path opacity="0.3" d="M27.1304 94.7621V98.2044H100.339V95.2812L27.1304 94.7621Z" fill="black"/>
</g>
<path d="M36.8574 107.944L33.41 118.47H94.6586L90.667 107.944H36.8574Z" fill="#455A64"/>
<path d="M92.7686 107.944C92.7686 107.98 79.7453 108.01 63.6878 108.01C47.6304 108.01 34.6045 107.98 34.6045 107.944C34.6045 107.909 47.6228 107.879 63.6878 107.879C79.7528 107.879 92.7686 107.906 92.7686 107.944Z" fill="#263238"/>
<path d="M92.1488 55.5584L96.6142 56.7907L93.3155 57.5971C91.6296 57.8667 90.8762 58.59 90.5712 59.5299L89.5406 67.8459L88.2806 59.5299C88.1252 59.1425 87.8898 58.7923 87.5897 58.5022C87.2896 58.2122 86.9317 57.9887 86.5392 57.8466L82.2552 56.8008L86.7761 55.5206C87.1494 55.3672 87.4874 55.1392 87.7694 54.8506C88.0515 54.562 88.2718 54.2189 88.4166 53.8423L89.5431 44.4326L90.352 53.6382C90.4834 54.075 90.7138 54.4756 91.0255 54.8087C91.3372 55.1418 91.7216 55.3984 92.1488 55.5584V55.5584Z" fill="white"/>
<path d="M94.4495 66.9841L95.4903 67.2714L94.7217 67.4604C94.3286 67.5234 94.1547 67.6922 94.0816 67.9089L93.8422 69.8443L93.5474 67.9064C93.5114 67.8162 93.4566 67.7347 93.3866 67.6674C93.3167 67.6 93.2331 67.5483 93.1416 67.5158L92.1462 67.2638L93.1996 66.9665C93.286 66.9302 93.3642 66.877 93.4296 66.8099C93.4949 66.7428 93.5461 66.6632 93.5801 66.5759L93.8321 64.386L94.0211 66.528C94.0514 66.6325 94.106 66.7283 94.1805 66.8076C94.2549 66.8869 94.3471 66.9474 94.4495 66.9841V66.9841Z" fill="white"/>
<path d="M79.0247 45.6574C79.0247 45.6574 78.1225 44.4302 77.679 44.1958C77.2355 43.9615 76.6206 43.9715 76.3535 44.2135L76.0838 44.4655C76.0838 44.4655 74.6827 43.838 74.0073 44.3218C74.0073 44.3218 72.6742 43.6918 72.0367 44.4125C72.0367 44.4125 71.0085 43.7447 70.5751 44.3269C70.1416 44.909 70.1845 45.8968 70.3962 46.4033C70.6078 46.9099 70.9984 48.6411 71.3059 48.6713C71.3059 48.6713 72.1249 48.757 72.2358 48.316C72.3466 47.875 72.3895 47.6583 72.3895 47.6583C72.3895 47.6583 72.7045 49.2257 73.08 49.3039C73.4554 49.382 74.1762 49.3391 74.2014 48.6512C74.2014 48.6512 74.5517 49.1703 74.8944 49.0191C75.2371 48.8679 75.6504 48.6184 75.6201 48.1925C75.5899 47.7667 75.5773 47.3433 75.5773 47.3433C75.5773 47.3433 75.7638 47.9632 76.0813 47.8271C76.3988 47.6911 76.7012 47.7213 76.8751 47.1971C77.049 46.673 77.4799 45.67 77.4799 45.67L79.0247 45.6574Z" fill="#FFBE9D"/>
<path d="M75.6 47.2953C75.6202 47.2953 75.537 47.1265 75.4664 46.8518C75.3721 46.4983 75.3566 46.1284 75.4211 45.7682C75.4895 45.4048 75.6366 45.0608 75.852 44.7602C76.0183 44.5309 76.1494 44.4099 76.1368 44.3948C76.1242 44.3797 75.9679 44.478 75.7764 44.6997C75.5268 44.9959 75.3583 45.3518 75.2877 45.7326C75.217 46.1134 75.2465 46.506 75.3732 46.872C75.4129 47.0296 75.4908 47.175 75.6 47.2953V47.2953Z" fill="#EB996E"/>
<path d="M73.9217 44.3168C73.8311 44.5123 73.7708 44.7205 73.7427 44.9342C73.6459 45.4447 73.6137 45.9654 73.647 46.484C73.6829 46.9988 73.7845 47.5069 73.9494 47.996C74.0026 48.2035 74.0876 48.4016 74.2014 48.5831C73.9907 47.8922 73.8481 47.1824 73.7755 46.4638C73.7535 45.7451 73.8024 45.0259 73.9217 44.3168V44.3168Z" fill="#EB996E"/>
<path d="M72.004 44.42C71.9068 44.968 71.9 45.5281 71.9838 46.0782C72.0259 46.6331 72.1596 47.1773 72.3795 47.6885C72.4198 47.6759 72.2207 46.9627 72.1275 46.0631C72.0342 45.1634 72.0468 44.4226 72.004 44.42Z" fill="#EB996E"/>
<path d="M66.4901 44.7729C66.5239 44.7018 66.573 44.6391 66.6341 44.5894C66.6951 44.5397 66.7665 44.5042 66.8429 44.4856C67.0205 44.4475 67.2046 44.4523 67.3799 44.4997C67.5552 44.547 67.7167 44.6355 67.8509 44.7577C68.1483 45.0221 68.4033 45.3306 68.6069 45.6725L66.6212 45.6599C66.6363 45.36 66.3792 45.0551 66.4901 44.7729Z" fill="#FFBE9D"/>
<path d="M26.9438 62.675C28.0393 62.8593 29.1437 62.9855 30.2525 63.053L32.8532 64.817L34.5013 66.9842C34.2694 67.4579 33.1833 67.2563 33.1833 67.2563L31.6285 65.8779L30.4541 65.6259L30.9581 66.4852L33.3521 68.1283L33.9267 68.6146C33.9267 68.6146 35.4589 69.4815 36.0007 69.8746C36.5929 70.3005 36.8121 70.6558 36.6332 70.8977C36.4165 71.185 35.8545 71.1497 35.5269 70.9985L32.6113 69.862C32.6113 69.862 31.3513 70.4618 30.7011 70.4139C30.0509 70.366 28.9371 70.1619 28.9371 70.1619L28.1811 70.6105C28.1097 70.687 28.0148 70.7375 27.9115 70.7541C27.6649 70.8104 27.4085 70.8076 27.1632 70.7458C26.9179 70.6841 26.6908 70.5651 26.5003 70.3988L24.7136 68.8868C24.3205 68.5567 23.6249 67.5688 23.0151 66.6465C22.6419 66.0861 22.4024 65.4475 22.315 64.7799C22.2276 64.1123 22.2947 63.4335 22.5111 62.7959C22.6938 62.2955 22.9841 61.8414 23.3617 61.4656C23.7392 61.0898 24.1947 60.8015 24.6959 60.6212L29.4184 54.2153L29.3932 63.0001" fill="#FFBE9D"/>
<path d="M29.8394 68.7154C30.2315 69.0375 30.6766 69.289 31.1548 69.4588C31.6159 69.6717 32.1104 69.803 32.6164 69.8468C32.6164 69.8065 31.9738 69.6427 31.2077 69.3277C30.4416 69.0127 29.862 68.6801 29.8394 68.7154Z" fill="#EB996E"/>
<path d="M28.1055 69.804C28.0829 69.8443 28.4281 70.0182 28.8615 70.1316C29.1246 70.2271 29.4033 70.2724 29.6831 70.2651C29.4361 70.136 29.171 70.0451 28.8968 69.9955C28.6387 69.9103 28.3741 69.8462 28.1055 69.804V69.804Z" fill="#EB996E"/>
<path d="M34.5617 68.9523C34.3346 68.7748 34.0973 68.6107 33.851 68.4609C33.41 68.161 32.8078 67.7401 32.1576 67.2513C31.8325 66.9993 31.5251 66.7725 31.2504 66.5532C31.0016 66.3729 30.783 66.1543 30.6028 65.9056C30.4467 65.6697 30.3659 65.392 30.3709 65.1093C30.3357 65.1811 30.3217 65.2616 30.3306 65.3411C30.3389 65.5598 30.404 65.7726 30.5196 65.9585C30.6935 66.2262 30.9126 66.4615 31.1672 66.654C31.4419 66.8783 31.7468 67.1202 32.0744 67.3647C32.7271 67.8535 33.3344 68.2668 33.7981 68.544C34.0366 68.7082 34.2927 68.8451 34.5617 68.9523V68.9523Z" fill="#EB996E"/>
<path d="M30.6608 65.6157C30.6608 65.6384 30.8724 65.6737 31.1925 65.7997C31.6091 65.9678 31.9834 66.226 32.2887 66.5557C32.446 66.7547 32.6224 66.9379 32.8154 67.1025C32.9886 67.2338 33.1959 67.3125 33.4126 67.3293C33.6036 67.3583 33.7987 67.3419 33.9821 67.2814C33.9821 67.2562 33.7629 67.2814 33.4252 67.2285C33.2316 67.2019 33.0488 67.1236 32.896 67.0017C32.7139 66.8348 32.5454 66.6536 32.392 66.4599C32.0736 66.1129 31.6721 65.8527 31.2252 65.7039C31.0466 65.6305 30.8532 65.6003 30.6608 65.6157V65.6157Z" fill="#EB996E"/>
<path d="M29.988 63.0403C29.988 62.9975 28.8137 62.9294 27.405 62.6926C25.9963 62.4557 24.885 62.1608 24.8699 62.2163C25.0932 62.3107 25.3242 62.3857 25.5604 62.4406C26.0039 62.5615 26.6389 62.7102 27.3571 62.8286C28.2237 62.9955 29.1059 63.0665 29.988 63.0403Z" fill="#EB996E"/>
</svg>
