<svg width="27" height="27" viewBox="0 0 27 27" fill="none" xmlns="http://www.w3.org/2000/svg">
<path fill-rule="evenodd" clip-rule="evenodd" d="M6.9 0.00561523C7.58345 0.00561523 8.1375 0.559663 8.1375 1.24312V3.77693H18.8625V1.24312C18.8625 0.559663 19.4165 0.00561523 20.1 0.00561523C20.7834 0.00561523 21.3375 0.559663 21.3375 1.24312V3.77693H23.8714C24.6997 3.77693 25.4941 4.10598 26.0799 4.6917C26.6656 5.27741 26.9946 6.07181 26.9946 6.90014V23.8716C26.9946 24.6999 26.6656 25.4943 26.0799 26.08C25.4942 26.6657 24.6997 26.9948 23.8714 26.9948H3.12857C2.30024 26.9948 1.50584 26.6657 0.92012 26.08C0.334404 25.4943 0.00535202 24.6999 0.00535202 23.8716V6.90014C0.00535202 6.07181 0.334404 5.27741 0.92012 4.6917C1.50584 4.10598 2.30024 3.77693 3.12857 3.77693C3.20917 3.77693 3.28797 3.78464 3.36428 3.79935C3.44059 3.78464 3.51939 3.77693 3.6 3.77693H5.6625V1.24312C5.6625 0.559663 6.21655 0.00561523 6.9 0.00561523ZM5.6625 8.78597V6.25193H3.6C3.51939 6.25193 3.44059 6.24422 3.36428 6.22951C3.28797 6.24422 3.20917 6.25193 3.12857 6.25193C2.95665 6.25193 2.79177 6.32022 2.67021 6.44179C2.54865 6.56335 2.48035 6.72823 2.48035 6.90014V23.8716C2.48035 24.0435 2.54865 24.2084 2.67021 24.3299C2.79177 24.4515 2.95665 24.5198 3.12857 24.5198H23.8714C24.0433 24.5198 24.2082 24.4515 24.3298 24.3299C24.4513 24.2084 24.5196 24.0435 24.5196 23.8716V6.90014C24.5196 6.72823 24.4513 6.56335 24.3298 6.44179C24.2082 6.32022 24.0433 6.25193 23.8714 6.25193H21.3375V8.78597C21.3375 9.46942 20.7834 10.0235 20.1 10.0235C19.4165 10.0235 18.8625 9.46942 18.8625 8.78597V6.25193H8.1375V8.78597C8.1375 9.46942 7.58345 10.0235 6.9 10.0235C6.21655 10.0235 5.6625 9.46942 5.6625 8.78597ZM19.1456 13.3724C19.5956 12.858 19.5435 12.0762 19.0292 11.6261C18.5148 11.1761 17.733 11.2282 17.283 11.7426L11.4387 18.4217L8.58535 16.2817C8.03859 15.8717 7.26292 15.9825 6.85285 16.5292C6.44278 17.076 6.55359 17.8517 7.10035 18.2617L10.8718 21.0903C11.3896 21.4787 12.1193 21.4024 12.5456 20.9152L19.1456 13.3724Z" fill="black"/>
</svg>
